<?xml version="1.0"?>
<svg width="960" height="960" xmlns="http://www.w3.org/2000/svg" xmlns:svg="http://www.w3.org/2000/svg">
 <g class="layer">
  <title>Layer 1</title>
  <path d="m479.85,936l0,-50.25l273.74,0q4.61,0 8.46,-3.85q3.85,-3.85 3.85,-8.46l0,-574.88q0,-4.61 -3.85,-8.46q-3.85,-3.84 -8.46,-3.84l-273.74,0l0,-50.26l273.74,0q25.79,0 44.17,18.39q18.39,18.39 18.39,44.17l0,574.88q0,25.78 -18.39,44.17q-18.38,18.39 -44.17,18.39l-273.74,0zm-49.95,-191.54l-35.59,-35.95l97.38,-97.38l-347.84,0l0,-50.26l346.77,0l-97.39,-97.38l35.85,-36.2l159.12,159.12l-158.3,158.05z" fill="#ffffff" id="svg_1"/>
 </g>
</svg>